<svg id="Layer_1" data-name="Layer 1" xmlns="http://www.w3.org/2000/svg" viewBox="0 0 284.39 72.26"><defs><style>.cls-1{fill:#fff;}</style></defs><path class="cls-1" d="M72.26,36.13c-5.69,0-10.36,4.41-10.36,10.93A10.39,10.39,0,1,0,82.66,47C82.66,41.2,78.3,36.13,72.26,36.13Z" transform="translate(-16.59 -16.82)"/><path class="cls-1" d="M166.45,16.82H19.11c-1.39,0-2.52,1.53-2.52,3.41V73.71c0,1.88,1.13,3.41,2.52,3.41H136l13.69,11.5c1.24.93,2.51.47,2.51-1.41V77.12h14.26c1.38,0,2.51-1.53,2.51-3.41V20.23C169,18.35,167.83,16.82,166.45,16.82ZM144.23,30.36h5.87V53.45h-5.87ZM41.89,63.58c-4.63,0-7.84-2.24-10.18-6.87l5.07-3c1.45,2.73,3.13,4.14,5.24,4.14s3.66-1.32,3.66-3a5,5,0,0,0-2-3.53c-6.56-5.51-10.44-8.5-10.44-13s3.92-8,8.68-8c4,0,6.66,2.16,9.17,5.06l-4.5,4c-1.5-2.12-3-3.26-4.76-3.26s-2.68.92-2.68,2.2.92,2,1.85,2.82c5.9,5.2,10.62,7.67,10.62,13.44C51.59,59.88,47.62,63.58,41.89,63.58Zm30.5,0A16.59,16.59,0,1,1,88.74,47.06,16.42,16.42,0,0,1,72.39,63.54Zm36.8-.75H94.39V31.15h6V57.06h8.77Zm24.33-2.86c-3.61,2.82-7.36,2.86-12,2.86h-7.71V31.15h7.63c5.55,0,9.47.66,12.91,4,2.86,2.78,4.58,7.18,4.58,12.21C138.94,52.79,136.91,57.28,133.52,59.93Zm13.67,3.48a3.71,3.71,0,1,1,0-7.41,3.71,3.71,0,0,1,0,7.41Z" transform="translate(-16.59 -16.82)"/><path class="cls-1" d="M122.33,37.05h-2.47V56.88H123c3.31,0,5.64-.44,7.49-2.42a10.66,10.66,0,0,0,2.34-7.23C132.86,40.62,129.2,37.05,122.33,37.05Z" transform="translate(-16.59 -16.82)"/><path class="cls-1" d="M181.84,53.86c1.49,2.82,3.22,4.27,5.4,4.27s3.76-1.36,3.76-3a5.09,5.09,0,0,0-2.09-3.63c-6.76-5.67-10.75-8.75-10.75-13.38s4-8.21,8.94-8.21c4.13,0,6.85,2.22,9.43,5.21l-4.62,4.09c-1.54-2.18-3.13-3.36-4.9-3.36s-2.77.95-2.77,2.27.95,2.08,1.91,2.9c6.08,5.35,10.93,7.89,10.93,13.84,0,5.44-4.08,9.25-10,9.25-4.76,0-8.08-2.31-10.48-7.07Z" transform="translate(-16.59 -16.82)"/><path class="cls-1" d="M198.66,30.68h18v6.08h-6v26.5h-6.22V36.76h-5.81Z" transform="translate(-16.59 -16.82)"/><path class="cls-1" d="M226.56,30.68h6.26l12.57,32.58H239l-2.55-6.72H223.11l-2.67,6.72H214Zm3.18,8.62-4.31,11.16h8.62Z" transform="translate(-16.59 -16.82)"/><path class="cls-1" d="M274.82,57.81c-4.31,4.22-8,6.26-14.15,6.26-10.21,0-17.24-7.12-17.24-17.15,0-10.29,8-17,17.33-17A18.73,18.73,0,0,1,275,36.4l-4.35,4.17c-3-3.13-6.17-4.76-10-4.76a11,11,0,0,0-11.11,11.11c0,6.72,4.8,11.21,11.25,11.21,4,0,6.76-1.63,9.84-4.72Z" transform="translate(-16.59 -16.82)"/><path class="cls-1" d="M277.35,30.68h6.22V41.89l8.84-11.21h7.49L288.46,45.2,301,63.26h-7.35L283.57,48.78V63.26h-6.22Z" transform="translate(-16.59 -16.82)"/></svg>